<?xml version="1.0" encoding="utf-8" standalone="no"?>
<!DOCTYPE svg PUBLIC "-//W3C//DTD SVG 1.1//EN"
  "http://www.w3.org/Graphics/SVG/1.1/DTD/svg11.dtd">
<!-- Created with matplotlib (https://matplotlib.org/) -->
<svg height="1008pt" version="1.1" viewBox="0 0 720 1008" width="720pt" xmlns="http://www.w3.org/2000/svg" xmlns:xlink="http://www.w3.org/1999/xlink">
 <metadata>
  <rdf:RDF xmlns:cc="http://creativecommons.org/ns#" xmlns:dc="http://purl.org/dc/elements/1.1/" xmlns:rdf="http://www.w3.org/1999/02/22-rdf-syntax-ns#">
   <cc:Work>
    <dc:type rdf:resource="http://purl.org/dc/dcmitype/StillImage"/>
    <dc:date>2021-07-05T18:47:46.912103</dc:date>
    <dc:format>image/svg+xml</dc:format>
    <dc:creator>
     <cc:Agent>
      <dc:title>Matplotlib v3.3.4, https://matplotlib.org/</dc:title>
     </cc:Agent>
    </dc:creator>
   </cc:Work>
  </rdf:RDF>
 </metadata>
 <defs>
  <style type="text/css">*{stroke-linecap:butt;stroke-linejoin:round;}</style>
 </defs>
 <g id="figure_1">
  <g id="patch_1">
   <path d="M 0 1008 
L 720 1008 
L 720 0 
L 0 0 
z
" style="fill:#ffffff;"/>
  </g>
  <g id="axes_1">
   <g id="patch_2">
    <path d="M 66.29225 478.016 
L 690 478.016 
L 690 42.56505 
L 66.29225 42.56505 
z
" style="fill:#ffffff;"/>
   </g>
   <g id="BrokenBarHCollection_1">
    <path clip-path="url(#pce0b864b2d)" d="M 122.992955 353.308954 
L 122.992955 323.451617 
L 130.553048 323.451617 
L 130.553048 353.308954 
L 122.992955 353.308954 
z
" style="fill:#f08080;"/>
   </g>
   <g id="BrokenBarHCollection_2">
    <path clip-path="url(#pce0b864b2d)" d="M 122.992955 323.451617 
L 122.992955 293.594279 
L 130.553048 293.594279 
L 130.553048 323.451617 
L 122.992955 323.451617 
z
" style="fill:#dc143c;"/>
   </g>
   <g id="BrokenBarHCollection_3">
    <path clip-path="url(#pce0b864b2d)" d="M 122.992955 293.594279 
L 122.992955 263.736942 
L 130.553048 263.736942 
L 130.553048 293.594279 
L 122.992955 293.594279 
z
" style="fill:#dc143c;"/>
   </g>
   <g id="BrokenBarHCollection_4">
    <path clip-path="url(#pce0b864b2d)" d="M 122.992955 263.736942 
L 122.992955 233.879604 
L 130.553048 233.879604 
L 130.553048 263.736942 
L 122.992955 263.736942 
z
" style="fill:#f08080;"/>
   </g>
   <g id="BrokenBarHCollection_5">
    <path clip-path="url(#pce0b864b2d)" d="M 217.494129 343.205389 
L 217.494129 307.907585 
L 225.054223 307.907585 
L 225.054223 343.205389 
L 217.494129 343.205389 
z
" style="fill:#f08080;"/>
   </g>
   <g id="BrokenBarHCollection_6">
    <path clip-path="url(#pce0b864b2d)" d="M 217.494129 307.907585 
L 217.494129 272.609782 
L 225.054223 272.609782 
L 225.054223 307.907585 
L 217.494129 307.907585 
z
" style="fill:#dc143c;"/>
   </g>
   <g id="BrokenBarHCollection_7">
    <path clip-path="url(#pce0b864b2d)" d="M 217.494129 272.609782 
L 217.494129 237.311979 
L 225.054223 237.311979 
L 225.054223 272.609782 
L 217.494129 272.609782 
z
" style="fill:#dc143c;"/>
   </g>
   <g id="BrokenBarHCollection_8">
    <path clip-path="url(#pce0b864b2d)" d="M 217.494129 237.311979 
L 217.494129 202.014175 
L 225.054223 202.014175 
L 225.054223 237.311979 
L 217.494129 237.311979 
z
" style="fill:#f08080;"/>
   </g>
   <g id="BrokenBarHCollection_9">
    <path clip-path="url(#pce0b864b2d)" d="M 311.995303 458.222775 
L 311.995303 359.25665 
L 319.555397 359.25665 
L 319.555397 458.222775 
L 311.995303 458.222775 
z
" style="fill:#f08080;"/>
   </g>
   <g id="BrokenBarHCollection_10">
    <path clip-path="url(#pce0b864b2d)" d="M 311.995303 359.25665 
L 311.995303 260.290525 
L 319.555397 260.290525 
L 319.555397 359.25665 
L 311.995303 359.25665 
z
" style="fill:#dc143c;"/>
   </g>
   <g id="BrokenBarHCollection_11">
    <path clip-path="url(#pce0b864b2d)" d="M 311.995303 260.290525 
L 311.995303 161.3244 
L 319.555397 161.3244 
L 319.555397 260.290525 
L 311.995303 260.290525 
z
" style="fill:#dc143c;"/>
   </g>
   <g id="BrokenBarHCollection_12">
    <path clip-path="url(#pce0b864b2d)" d="M 311.995303 161.3244 
L 311.995303 62.358275 
L 319.555397 62.358275 
L 319.555397 161.3244 
L 311.995303 161.3244 
z
" style="fill:#f08080;"/>
   </g>
   <g id="BrokenBarHCollection_13">
    <path clip-path="url(#pce0b864b2d)" d="M 661.649648 283.605114 
L 661.649648 283.605114 
L 661.649648 283.605114 
L 661.649648 283.605114 
L 661.649648 283.605114 
z
" style="fill:#6495ed;"/>
   </g>
   <g id="BrokenBarHCollection_14">
    <path clip-path="url(#pce0b864b2d)" d="M 661.649648 283.605114 
L 661.649648 283.605114 
L 661.649648 283.605114 
L 661.649648 283.605114 
L 661.649648 283.605114 
z
" style="fill:#b0c4de;"/>
   </g>
   <g id="BrokenBarHCollection_15">
    <path clip-path="url(#pce0b864b2d)" d="M 661.649648 283.605114 
L 661.649648 283.605114 
L 661.649648 283.605114 
L 661.649648 283.605114 
L 661.649648 283.605114 
z
" style="fill:#dc143c;"/>
   </g>
   <g id="matplotlib.axis_1">
    <g id="text_1">
     <!-- Individual Age Measurements +/- 1$\sigma$/2$\sigma$ Error -->
     <g transform="translate(264.846125 489.616)scale(0.1 -0.1)">
      <defs>
       <path d="M 9.8125 72.90625 
L 19.671875 72.90625 
L 19.671875 0 
L 9.8125 0 
z
" id="DejaVuSans-73"/>
       <path d="M 54.890625 33.015625 
L 54.890625 0 
L 45.90625 0 
L 45.90625 32.71875 
Q 45.90625 40.484375 42.875 44.328125 
Q 39.84375 48.1875 33.796875 48.1875 
Q 26.515625 48.1875 22.3125 43.546875 
Q 18.109375 38.921875 18.109375 30.90625 
L 18.109375 0 
L 9.078125 0 
L 9.078125 54.6875 
L 18.109375 54.6875 
L 18.109375 46.1875 
Q 21.34375 51.125 25.703125 53.5625 
Q 30.078125 56 35.796875 56 
Q 45.21875 56 50.046875 50.171875 
Q 54.890625 44.34375 54.890625 33.015625 
z
" id="DejaVuSans-110"/>
       <path d="M 45.40625 46.390625 
L 45.40625 75.984375 
L 54.390625 75.984375 
L 54.390625 0 
L 45.40625 0 
L 45.40625 8.203125 
Q 42.578125 3.328125 38.25 0.953125 
Q 33.9375 -1.421875 27.875 -1.421875 
Q 17.96875 -1.421875 11.734375 6.484375 
Q 5.515625 14.40625 5.515625 27.296875 
Q 5.515625 40.1875 11.734375 48.09375 
Q 17.96875 56 27.875 56 
Q 33.9375 56 38.25 53.625 
Q 42.578125 51.265625 45.40625 46.390625 
z
M 14.796875 27.296875 
Q 14.796875 17.390625 18.875 11.75 
Q 22.953125 6.109375 30.078125 6.109375 
Q 37.203125 6.109375 41.296875 11.75 
Q 45.40625 17.390625 45.40625 27.296875 
Q 45.40625 37.203125 41.296875 42.84375 
Q 37.203125 48.484375 30.078125 48.484375 
Q 22.953125 48.484375 18.875 42.84375 
Q 14.796875 37.203125 14.796875 27.296875 
z
" id="DejaVuSans-100"/>
       <path d="M 9.421875 54.6875 
L 18.40625 54.6875 
L 18.40625 0 
L 9.421875 0 
z
M 9.421875 75.984375 
L 18.40625 75.984375 
L 18.40625 64.59375 
L 9.421875 64.59375 
z
" id="DejaVuSans-105"/>
       <path d="M 2.984375 54.6875 
L 12.5 54.6875 
L 29.59375 8.796875 
L 46.6875 54.6875 
L 56.203125 54.6875 
L 35.6875 0 
L 23.484375 0 
z
" id="DejaVuSans-118"/>
       <path d="M 8.5 21.578125 
L 8.5 54.6875 
L 17.484375 54.6875 
L 17.484375 21.921875 
Q 17.484375 14.15625 20.5 10.265625 
Q 23.53125 6.390625 29.59375 6.390625 
Q 36.859375 6.390625 41.078125 11.03125 
Q 45.3125 15.671875 45.3125 23.6875 
L 45.3125 54.6875 
L 54.296875 54.6875 
L 54.296875 0 
L 45.3125 0 
L 45.3125 8.40625 
Q 42.046875 3.421875 37.71875 1 
Q 33.40625 -1.421875 27.6875 -1.421875 
Q 18.265625 -1.421875 13.375 4.4375 
Q 8.5 10.296875 8.5 21.578125 
z
M 31.109375 56 
z
" id="DejaVuSans-117"/>
       <path d="M 34.28125 27.484375 
Q 23.390625 27.484375 19.1875 25 
Q 14.984375 22.515625 14.984375 16.5 
Q 14.984375 11.71875 18.140625 8.90625 
Q 21.296875 6.109375 26.703125 6.109375 
Q 34.1875 6.109375 38.703125 11.40625 
Q 43.21875 16.703125 43.21875 25.484375 
L 43.21875 27.484375 
z
M 52.203125 31.203125 
L 52.203125 0 
L 43.21875 0 
L 43.21875 8.296875 
Q 40.140625 3.328125 35.546875 0.953125 
Q 30.953125 -1.421875 24.3125 -1.421875 
Q 15.921875 -1.421875 10.953125 3.296875 
Q 6 8.015625 6 15.921875 
Q 6 25.140625 12.171875 29.828125 
Q 18.359375 34.515625 30.609375 34.515625 
L 43.21875 34.515625 
L 43.21875 35.40625 
Q 43.21875 41.609375 39.140625 45 
Q 35.0625 48.390625 27.6875 48.390625 
Q 23 48.390625 18.546875 47.265625 
Q 14.109375 46.140625 10.015625 43.890625 
L 10.015625 52.203125 
Q 14.9375 54.109375 19.578125 55.046875 
Q 24.21875 56 28.609375 56 
Q 40.484375 56 46.34375 49.84375 
Q 52.203125 43.703125 52.203125 31.203125 
z
" id="DejaVuSans-97"/>
       <path d="M 9.421875 75.984375 
L 18.40625 75.984375 
L 18.40625 0 
L 9.421875 0 
z
" id="DejaVuSans-108"/>
       <path id="DejaVuSans-32"/>
       <path d="M 34.1875 63.1875 
L 20.796875 26.90625 
L 47.609375 26.90625 
z
M 28.609375 72.90625 
L 39.796875 72.90625 
L 67.578125 0 
L 57.328125 0 
L 50.6875 18.703125 
L 17.828125 18.703125 
L 11.1875 0 
L 0.78125 0 
z
" id="DejaVuSans-65"/>
       <path d="M 45.40625 27.984375 
Q 45.40625 37.75 41.375 43.109375 
Q 37.359375 48.484375 30.078125 48.484375 
Q 22.859375 48.484375 18.828125 43.109375 
Q 14.796875 37.75 14.796875 27.984375 
Q 14.796875 18.265625 18.828125 12.890625 
Q 22.859375 7.515625 30.078125 7.515625 
Q 37.359375 7.515625 41.375 12.890625 
Q 45.40625 18.265625 45.40625 27.984375 
z
M 54.390625 6.78125 
Q 54.390625 -7.171875 48.1875 -13.984375 
Q 42 -20.796875 29.203125 -20.796875 
Q 24.46875 -20.796875 20.265625 -20.09375 
Q 16.0625 -19.390625 12.109375 -17.921875 
L 12.109375 -9.1875 
Q 16.0625 -11.328125 19.921875 -12.34375 
Q 23.78125 -13.375 27.78125 -13.375 
Q 36.625 -13.375 41.015625 -8.765625 
Q 45.40625 -4.15625 45.40625 5.171875 
L 45.40625 9.625 
Q 42.625 4.78125 38.28125 2.390625 
Q 33.9375 0 27.875 0 
Q 17.828125 0 11.671875 7.65625 
Q 5.515625 15.328125 5.515625 27.984375 
Q 5.515625 40.671875 11.671875 48.328125 
Q 17.828125 56 27.875 56 
Q 33.9375 56 38.28125 53.609375 
Q 42.625 51.21875 45.40625 46.390625 
L 45.40625 54.6875 
L 54.390625 54.6875 
z
" id="DejaVuSans-103"/>
       <path d="M 56.203125 29.59375 
L 56.203125 25.203125 
L 14.890625 25.203125 
Q 15.484375 15.921875 20.484375 11.0625 
Q 25.484375 6.203125 34.421875 6.203125 
Q 39.59375 6.203125 44.453125 7.46875 
Q 49.3125 8.734375 54.109375 11.28125 
L 54.109375 2.78125 
Q 49.265625 0.734375 44.1875 -0.34375 
Q 39.109375 -1.421875 33.890625 -1.421875 
Q 20.796875 -1.421875 13.15625 6.1875 
Q 5.515625 13.8125 5.515625 26.8125 
Q 5.515625 40.234375 12.765625 48.109375 
Q 20.015625 56 32.328125 56 
Q 43.359375 56 49.78125 48.890625 
Q 56.203125 41.796875 56.203125 29.59375 
z
M 47.21875 32.234375 
Q 47.125 39.59375 43.09375 43.984375 
Q 39.0625 48.390625 32.421875 48.390625 
Q 24.90625 48.390625 20.390625 44.140625 
Q 15.875 39.890625 15.1875 32.171875 
z
" id="DejaVuSans-101"/>
       <path d="M 9.8125 72.90625 
L 24.515625 72.90625 
L 43.109375 23.296875 
L 61.8125 72.90625 
L 76.515625 72.90625 
L 76.515625 0 
L 66.890625 0 
L 66.890625 64.015625 
L 48.09375 14.015625 
L 38.1875 14.015625 
L 19.390625 64.015625 
L 19.390625 0 
L 9.8125 0 
z
" id="DejaVuSans-77"/>
       <path d="M 44.28125 53.078125 
L 44.28125 44.578125 
Q 40.484375 46.53125 36.375 47.5 
Q 32.28125 48.484375 27.875 48.484375 
Q 21.1875 48.484375 17.84375 46.4375 
Q 14.5 44.390625 14.5 40.28125 
Q 14.5 37.15625 16.890625 35.375 
Q 19.28125 33.59375 26.515625 31.984375 
L 29.59375 31.296875 
Q 39.15625 29.25 43.1875 25.515625 
Q 47.21875 21.78125 47.21875 15.09375 
Q 47.21875 7.46875 41.1875 3.015625 
Q 35.15625 -1.421875 24.609375 -1.421875 
Q 20.21875 -1.421875 15.453125 -0.5625 
Q 10.6875 0.296875 5.421875 2 
L 5.421875 11.28125 
Q 10.40625 8.6875 15.234375 7.390625 
Q 20.0625 6.109375 24.8125 6.109375 
Q 31.15625 6.109375 34.5625 8.28125 
Q 37.984375 10.453125 37.984375 14.40625 
Q 37.984375 18.0625 35.515625 20.015625 
Q 33.0625 21.96875 24.703125 23.78125 
L 21.578125 24.515625 
Q 13.234375 26.265625 9.515625 29.90625 
Q 5.8125 33.546875 5.8125 39.890625 
Q 5.8125 47.609375 11.28125 51.796875 
Q 16.75 56 26.8125 56 
Q 31.78125 56 36.171875 55.265625 
Q 40.578125 54.546875 44.28125 53.078125 
z
" id="DejaVuSans-115"/>
       <path d="M 41.109375 46.296875 
Q 39.59375 47.171875 37.8125 47.578125 
Q 36.03125 48 33.890625 48 
Q 26.265625 48 22.1875 43.046875 
Q 18.109375 38.09375 18.109375 28.8125 
L 18.109375 0 
L 9.078125 0 
L 9.078125 54.6875 
L 18.109375 54.6875 
L 18.109375 46.1875 
Q 20.953125 51.171875 25.484375 53.578125 
Q 30.03125 56 36.53125 56 
Q 37.453125 56 38.578125 55.875 
Q 39.703125 55.765625 41.0625 55.515625 
z
" id="DejaVuSans-114"/>
       <path d="M 52 44.1875 
Q 55.375 50.25 60.0625 53.125 
Q 64.75 56 71.09375 56 
Q 79.640625 56 84.28125 50.015625 
Q 88.921875 44.046875 88.921875 33.015625 
L 88.921875 0 
L 79.890625 0 
L 79.890625 32.71875 
Q 79.890625 40.578125 77.09375 44.375 
Q 74.3125 48.1875 68.609375 48.1875 
Q 61.625 48.1875 57.5625 43.546875 
Q 53.515625 38.921875 53.515625 30.90625 
L 53.515625 0 
L 44.484375 0 
L 44.484375 32.71875 
Q 44.484375 40.625 41.703125 44.40625 
Q 38.921875 48.1875 33.109375 48.1875 
Q 26.21875 48.1875 22.15625 43.53125 
Q 18.109375 38.875 18.109375 30.90625 
L 18.109375 0 
L 9.078125 0 
L 9.078125 54.6875 
L 18.109375 54.6875 
L 18.109375 46.1875 
Q 21.1875 51.21875 25.484375 53.609375 
Q 29.78125 56 35.6875 56 
Q 41.65625 56 45.828125 52.96875 
Q 50 49.953125 52 44.1875 
z
" id="DejaVuSans-109"/>
       <path d="M 18.3125 70.21875 
L 18.3125 54.6875 
L 36.8125 54.6875 
L 36.8125 47.703125 
L 18.3125 47.703125 
L 18.3125 18.015625 
Q 18.3125 11.328125 20.140625 9.421875 
Q 21.96875 7.515625 27.59375 7.515625 
L 36.8125 7.515625 
L 36.8125 0 
L 27.59375 0 
Q 17.1875 0 13.234375 3.875 
Q 9.28125 7.765625 9.28125 18.015625 
L 9.28125 47.703125 
L 2.6875 47.703125 
L 2.6875 54.6875 
L 9.28125 54.6875 
L 9.28125 70.21875 
z
" id="DejaVuSans-116"/>
       <path d="M 46 62.703125 
L 46 35.5 
L 73.1875 35.5 
L 73.1875 27.203125 
L 46 27.203125 
L 46 0 
L 37.796875 0 
L 37.796875 27.203125 
L 10.59375 27.203125 
L 10.59375 35.5 
L 37.796875 35.5 
L 37.796875 62.703125 
z
" id="DejaVuSans-43"/>
       <path d="M 25.390625 72.90625 
L 33.6875 72.90625 
L 8.296875 -9.28125 
L 0 -9.28125 
z
" id="DejaVuSans-47"/>
       <path d="M 4.890625 31.390625 
L 31.203125 31.390625 
L 31.203125 23.390625 
L 4.890625 23.390625 
z
" id="DejaVuSans-45"/>
       <path d="M 12.40625 8.296875 
L 28.515625 8.296875 
L 28.515625 63.921875 
L 10.984375 60.40625 
L 10.984375 69.390625 
L 28.421875 72.90625 
L 38.28125 72.90625 
L 38.28125 8.296875 
L 54.390625 8.296875 
L 54.390625 0 
L 12.40625 0 
z
" id="DejaVuSans-49"/>
       <path d="M 34.671875 47.5625 
Q 27.25 47.5625 22.21875 42.1875 
Q 16.890625 36.578125 15.140625 27.296875 
Q 13.1875 17.484375 16.3125 11.8125 
Q 19.390625 6.203125 26.65625 6.203125 
Q 33.84375 6.203125 39.109375 11.859375 
Q 44.4375 17.53125 46.34375 27.296875 
Q 48.046875 36.234375 45.015625 42.1875 
Q 42.1875 47.5625 34.671875 47.5625 
z
M 36.078125 54.734375 
L 65.921875 54.6875 
L 64.15625 45.703125 
L 54.109375 45.703125 
Q 57.90625 38.09375 55.859375 27.296875 
Q 53.21875 13.875 45.0625 6.25 
Q 36.859375 -1.421875 25.140625 -1.421875 
Q 13.375 -1.421875 8.203125 6.25 
Q 3.03125 13.875 5.671875 27.296875 
Q 8.25 40.765625 16.40625 48.390625 
Q 23.1875 54.734375 36.078125 54.734375 
z
" id="DejaVuSans-Oblique-963"/>
       <path d="M 19.1875 8.296875 
L 53.609375 8.296875 
L 53.609375 0 
L 7.328125 0 
L 7.328125 8.296875 
Q 12.9375 14.109375 22.625 23.890625 
Q 32.328125 33.6875 34.8125 36.53125 
Q 39.546875 41.84375 41.421875 45.53125 
Q 43.3125 49.21875 43.3125 52.78125 
Q 43.3125 58.59375 39.234375 62.25 
Q 35.15625 65.921875 28.609375 65.921875 
Q 23.96875 65.921875 18.8125 64.3125 
Q 13.671875 62.703125 7.8125 59.421875 
L 7.8125 69.390625 
Q 13.765625 71.78125 18.9375 73 
Q 24.125 74.21875 28.421875 74.21875 
Q 39.75 74.21875 46.484375 68.546875 
Q 53.21875 62.890625 53.21875 53.421875 
Q 53.21875 48.921875 51.53125 44.890625 
Q 49.859375 40.875 45.40625 35.40625 
Q 44.1875 33.984375 37.640625 27.21875 
Q 31.109375 20.453125 19.1875 8.296875 
z
" id="DejaVuSans-50"/>
       <path d="M 9.8125 72.90625 
L 55.90625 72.90625 
L 55.90625 64.59375 
L 19.671875 64.59375 
L 19.671875 43.015625 
L 54.390625 43.015625 
L 54.390625 34.71875 
L 19.671875 34.71875 
L 19.671875 8.296875 
L 56.78125 8.296875 
L 56.78125 0 
L 9.8125 0 
z
" id="DejaVuSans-69"/>
       <path d="M 30.609375 48.390625 
Q 23.390625 48.390625 19.1875 42.75 
Q 14.984375 37.109375 14.984375 27.296875 
Q 14.984375 17.484375 19.15625 11.84375 
Q 23.34375 6.203125 30.609375 6.203125 
Q 37.796875 6.203125 41.984375 11.859375 
Q 46.1875 17.53125 46.1875 27.296875 
Q 46.1875 37.015625 41.984375 42.703125 
Q 37.796875 48.390625 30.609375 48.390625 
z
M 30.609375 56 
Q 42.328125 56 49.015625 48.375 
Q 55.71875 40.765625 55.71875 27.296875 
Q 55.71875 13.875 49.015625 6.21875 
Q 42.328125 -1.421875 30.609375 -1.421875 
Q 18.84375 -1.421875 12.171875 6.21875 
Q 5.515625 13.875 5.515625 27.296875 
Q 5.515625 40.765625 12.171875 48.375 
Q 18.84375 56 30.609375 56 
z
" id="DejaVuSans-111"/>
      </defs>
      <use transform="translate(0 0.015625)" xlink:href="#DejaVuSans-73"/>
      <use transform="translate(29.492188 0.015625)" xlink:href="#DejaVuSans-110"/>
      <use transform="translate(92.871094 0.015625)" xlink:href="#DejaVuSans-100"/>
      <use transform="translate(156.347656 0.015625)" xlink:href="#DejaVuSans-105"/>
      <use transform="translate(184.130859 0.015625)" xlink:href="#DejaVuSans-118"/>
      <use transform="translate(243.310547 0.015625)" xlink:href="#DejaVuSans-105"/>
      <use transform="translate(271.09375 0.015625)" xlink:href="#DejaVuSans-100"/>
      <use transform="translate(334.570312 0.015625)" xlink:href="#DejaVuSans-117"/>
      <use transform="translate(397.949219 0.015625)" xlink:href="#DejaVuSans-97"/>
      <use transform="translate(459.228516 0.015625)" xlink:href="#DejaVuSans-108"/>
      <use transform="translate(487.011719 0.015625)" xlink:href="#DejaVuSans-32"/>
      <use transform="translate(518.798828 0.015625)" xlink:href="#DejaVuSans-65"/>
      <use transform="translate(587.207031 0.015625)" xlink:href="#DejaVuSans-103"/>
      <use transform="translate(650.683594 0.015625)" xlink:href="#DejaVuSans-101"/>
      <use transform="translate(712.207031 0.015625)" xlink:href="#DejaVuSans-32"/>
      <use transform="translate(743.994141 0.015625)" xlink:href="#DejaVuSans-77"/>
      <use transform="translate(830.273438 0.015625)" xlink:href="#DejaVuSans-101"/>
      <use transform="translate(891.796875 0.015625)" xlink:href="#DejaVuSans-97"/>
      <use transform="translate(953.076172 0.015625)" xlink:href="#DejaVuSans-115"/>
      <use transform="translate(1005.175781 0.015625)" xlink:href="#DejaVuSans-117"/>
      <use transform="translate(1068.554688 0.015625)" xlink:href="#DejaVuSans-114"/>
      <use transform="translate(1109.667969 0.015625)" xlink:href="#DejaVuSans-101"/>
      <use transform="translate(1171.191406 0.015625)" xlink:href="#DejaVuSans-109"/>
      <use transform="translate(1268.603516 0.015625)" xlink:href="#DejaVuSans-101"/>
      <use transform="translate(1330.126953 0.015625)" xlink:href="#DejaVuSans-110"/>
      <use transform="translate(1393.505859 0.015625)" xlink:href="#DejaVuSans-116"/>
      <use transform="translate(1432.714844 0.015625)" xlink:href="#DejaVuSans-115"/>
      <use transform="translate(1484.814453 0.015625)" xlink:href="#DejaVuSans-32"/>
      <use transform="translate(1516.601562 0.015625)" xlink:href="#DejaVuSans-43"/>
      <use transform="translate(1600.390625 0.015625)" xlink:href="#DejaVuSans-47"/>
      <use transform="translate(1634.082031 0.015625)" xlink:href="#DejaVuSans-45"/>
      <use transform="translate(1670.166016 0.015625)" xlink:href="#DejaVuSans-32"/>
      <use transform="translate(1701.953125 0.015625)" xlink:href="#DejaVuSans-49"/>
      <use transform="translate(1765.576172 0.015625)" xlink:href="#DejaVuSans-Oblique-963"/>
      <use transform="translate(1828.955078 0.015625)" xlink:href="#DejaVuSans-47"/>
      <use transform="translate(1859.021484 0.015625)" xlink:href="#DejaVuSans-50"/>
      <use transform="translate(1922.644531 0.015625)" xlink:href="#DejaVuSans-Oblique-963"/>
      <use transform="translate(1986.023438 0.015625)" xlink:href="#DejaVuSans-32"/>
      <use transform="translate(2017.810547 0.015625)" xlink:href="#DejaVuSans-69"/>
      <use transform="translate(2080.994141 0.015625)" xlink:href="#DejaVuSans-114"/>
      <use transform="translate(2122.107422 0.015625)" xlink:href="#DejaVuSans-114"/>
      <use transform="translate(2163.220703 0.015625)" xlink:href="#DejaVuSans-111"/>
      <use transform="translate(2224.402344 0.015625)" xlink:href="#DejaVuSans-114"/>
     </g>
    </g>
   </g>
   <g id="matplotlib.axis_2">
    <g id="ytick_1">
     <g id="line2d_1">
      <path clip-path="url(#pce0b864b2d)" d="M 66.29225 433.125525 
L 690 433.125525 
" style="fill:none;stroke:#b0b0b0;stroke-linecap:square;stroke-width:0.8;"/>
     </g>
     <g id="line2d_2">
      <defs>
       <path d="M 0 0 
L -3.5 0 
" id="me0f00ab0c8" style="stroke:#000000;stroke-width:0.8;"/>
      </defs>
      <g>
       <use style="stroke:#000000;stroke-width:0.8;" x="66.29225" xlink:href="#me0f00ab0c8" y="433.125525"/>
      </g>
     </g>
     <g id="text_2">
      <!-- 900 -->
      <g transform="translate(40.20475 436.924744)scale(0.1 -0.1)">
       <defs>
        <path d="M 10.984375 1.515625 
L 10.984375 10.5 
Q 14.703125 8.734375 18.5 7.8125 
Q 22.3125 6.890625 25.984375 6.890625 
Q 35.75 6.890625 40.890625 13.453125 
Q 46.046875 20.015625 46.78125 33.40625 
Q 43.953125 29.203125 39.59375 26.953125 
Q 35.25 24.703125 29.984375 24.703125 
Q 19.046875 24.703125 12.671875 31.3125 
Q 6.296875 37.9375 6.296875 49.421875 
Q 6.296875 60.640625 12.9375 67.421875 
Q 19.578125 74.21875 30.609375 74.21875 
Q 43.265625 74.21875 49.921875 64.515625 
Q 56.59375 54.828125 56.59375 36.375 
Q 56.59375 19.140625 48.40625 8.859375 
Q 40.234375 -1.421875 26.421875 -1.421875 
Q 22.703125 -1.421875 18.890625 -0.6875 
Q 15.09375 0.046875 10.984375 1.515625 
z
M 30.609375 32.421875 
Q 37.25 32.421875 41.125 36.953125 
Q 45.015625 41.5 45.015625 49.421875 
Q 45.015625 57.28125 41.125 61.84375 
Q 37.25 66.40625 30.609375 66.40625 
Q 23.96875 66.40625 20.09375 61.84375 
Q 16.21875 57.28125 16.21875 49.421875 
Q 16.21875 41.5 20.09375 36.953125 
Q 23.96875 32.421875 30.609375 32.421875 
z
" id="DejaVuSans-57"/>
        <path d="M 31.78125 66.40625 
Q 24.171875 66.40625 20.328125 58.90625 
Q 16.5 51.421875 16.5 36.375 
Q 16.5 21.390625 20.328125 13.890625 
Q 24.171875 6.390625 31.78125 6.390625 
Q 39.453125 6.390625 43.28125 13.890625 
Q 47.125 21.390625 47.125 36.375 
Q 47.125 51.421875 43.28125 58.90625 
Q 39.453125 66.40625 31.78125 66.40625 
z
M 31.78125 74.21875 
Q 44.046875 74.21875 50.515625 64.515625 
Q 56.984375 54.828125 56.984375 36.375 
Q 56.984375 17.96875 50.515625 8.265625 
Q 44.046875 -1.421875 31.78125 -1.421875 
Q 19.53125 -1.421875 13.0625 8.265625 
Q 6.59375 17.96875 6.59375 36.375 
Q 6.59375 54.828125 13.0625 64.515625 
Q 19.53125 74.21875 31.78125 74.21875 
z
" id="DejaVuSans-48"/>
       </defs>
       <use xlink:href="#DejaVuSans-57"/>
       <use x="63.623047" xlink:href="#DejaVuSans-48"/>
       <use x="127.246094" xlink:href="#DejaVuSans-48"/>
      </g>
     </g>
    </g>
    <g id="ytick_2">
     <g id="line2d_3">
      <path clip-path="url(#pce0b864b2d)" d="M 66.29225 380.925284 
L 690 380.925284 
" style="fill:none;stroke:#b0b0b0;stroke-linecap:square;stroke-width:0.8;"/>
     </g>
     <g id="line2d_4">
      <g>
       <use style="stroke:#000000;stroke-width:0.8;" x="66.29225" xlink:href="#me0f00ab0c8" y="380.925284"/>
      </g>
     </g>
     <g id="text_3">
      <!-- 1000 -->
      <g transform="translate(33.84225 384.724502)scale(0.1 -0.1)">
       <use xlink:href="#DejaVuSans-49"/>
       <use x="63.623047" xlink:href="#DejaVuSans-48"/>
       <use x="127.246094" xlink:href="#DejaVuSans-48"/>
       <use x="190.869141" xlink:href="#DejaVuSans-48"/>
      </g>
     </g>
    </g>
    <g id="ytick_3">
     <g id="line2d_5">
      <path clip-path="url(#pce0b864b2d)" d="M 66.29225 328.725042 
L 690 328.725042 
" style="fill:none;stroke:#b0b0b0;stroke-linecap:square;stroke-width:0.8;"/>
     </g>
     <g id="line2d_6">
      <g>
       <use style="stroke:#000000;stroke-width:0.8;" x="66.29225" xlink:href="#me0f00ab0c8" y="328.725042"/>
      </g>
     </g>
     <g id="text_4">
      <!-- 1100 -->
      <g transform="translate(33.84225 332.524261)scale(0.1 -0.1)">
       <use xlink:href="#DejaVuSans-49"/>
       <use x="63.623047" xlink:href="#DejaVuSans-49"/>
       <use x="127.246094" xlink:href="#DejaVuSans-48"/>
       <use x="190.869141" xlink:href="#DejaVuSans-48"/>
      </g>
     </g>
    </g>
    <g id="ytick_4">
     <g id="line2d_7">
      <path clip-path="url(#pce0b864b2d)" d="M 66.29225 276.5248 
L 690 276.5248 
" style="fill:none;stroke:#b0b0b0;stroke-linecap:square;stroke-width:0.8;"/>
     </g>
     <g id="line2d_8">
      <g>
       <use style="stroke:#000000;stroke-width:0.8;" x="66.29225" xlink:href="#me0f00ab0c8" y="276.5248"/>
      </g>
     </g>
     <g id="text_5">
      <!-- 1200 -->
      <g transform="translate(33.84225 280.324019)scale(0.1 -0.1)">
       <use xlink:href="#DejaVuSans-49"/>
       <use x="63.623047" xlink:href="#DejaVuSans-50"/>
       <use x="127.246094" xlink:href="#DejaVuSans-48"/>
       <use x="190.869141" xlink:href="#DejaVuSans-48"/>
      </g>
     </g>
    </g>
    <g id="ytick_5">
     <g id="line2d_9">
      <path clip-path="url(#pce0b864b2d)" d="M 66.29225 224.324558 
L 690 224.324558 
" style="fill:none;stroke:#b0b0b0;stroke-linecap:square;stroke-width:0.8;"/>
     </g>
     <g id="line2d_10">
      <g>
       <use style="stroke:#000000;stroke-width:0.8;" x="66.29225" xlink:href="#me0f00ab0c8" y="224.324558"/>
      </g>
     </g>
     <g id="text_6">
      <!-- 1300 -->
      <g transform="translate(33.84225 228.123777)scale(0.1 -0.1)">
       <defs>
        <path d="M 40.578125 39.3125 
Q 47.65625 37.796875 51.625 33 
Q 55.609375 28.21875 55.609375 21.1875 
Q 55.609375 10.40625 48.1875 4.484375 
Q 40.765625 -1.421875 27.09375 -1.421875 
Q 22.515625 -1.421875 17.65625 -0.515625 
Q 12.796875 0.390625 7.625 2.203125 
L 7.625 11.71875 
Q 11.71875 9.328125 16.59375 8.109375 
Q 21.484375 6.890625 26.8125 6.890625 
Q 36.078125 6.890625 40.9375 10.546875 
Q 45.796875 14.203125 45.796875 21.1875 
Q 45.796875 27.640625 41.28125 31.265625 
Q 36.765625 34.90625 28.71875 34.90625 
L 20.21875 34.90625 
L 20.21875 43.015625 
L 29.109375 43.015625 
Q 36.375 43.015625 40.234375 45.921875 
Q 44.09375 48.828125 44.09375 54.296875 
Q 44.09375 59.90625 40.109375 62.90625 
Q 36.140625 65.921875 28.71875 65.921875 
Q 24.65625 65.921875 20.015625 65.03125 
Q 15.375 64.15625 9.8125 62.3125 
L 9.8125 71.09375 
Q 15.4375 72.65625 20.34375 73.4375 
Q 25.25 74.21875 29.59375 74.21875 
Q 40.828125 74.21875 47.359375 69.109375 
Q 53.90625 64.015625 53.90625 55.328125 
Q 53.90625 49.265625 50.4375 45.09375 
Q 46.96875 40.921875 40.578125 39.3125 
z
" id="DejaVuSans-51"/>
       </defs>
       <use xlink:href="#DejaVuSans-49"/>
       <use x="63.623047" xlink:href="#DejaVuSans-51"/>
       <use x="127.246094" xlink:href="#DejaVuSans-48"/>
       <use x="190.869141" xlink:href="#DejaVuSans-48"/>
      </g>
     </g>
    </g>
    <g id="ytick_6">
     <g id="line2d_11">
      <path clip-path="url(#pce0b864b2d)" d="M 66.29225 172.124317 
L 690 172.124317 
" style="fill:none;stroke:#b0b0b0;stroke-linecap:square;stroke-width:0.8;"/>
     </g>
     <g id="line2d_12">
      <g>
       <use style="stroke:#000000;stroke-width:0.8;" x="66.29225" xlink:href="#me0f00ab0c8" y="172.124317"/>
      </g>
     </g>
     <g id="text_7">
      <!-- 1400 -->
      <g transform="translate(33.84225 175.923536)scale(0.1 -0.1)">
       <defs>
        <path d="M 37.796875 64.3125 
L 12.890625 25.390625 
L 37.796875 25.390625 
z
M 35.203125 72.90625 
L 47.609375 72.90625 
L 47.609375 25.390625 
L 58.015625 25.390625 
L 58.015625 17.1875 
L 47.609375 17.1875 
L 47.609375 0 
L 37.796875 0 
L 37.796875 17.1875 
L 4.890625 17.1875 
L 4.890625 26.703125 
z
" id="DejaVuSans-52"/>
       </defs>
       <use xlink:href="#DejaVuSans-49"/>
       <use x="63.623047" xlink:href="#DejaVuSans-52"/>
       <use x="127.246094" xlink:href="#DejaVuSans-48"/>
       <use x="190.869141" xlink:href="#DejaVuSans-48"/>
      </g>
     </g>
    </g>
    <g id="ytick_7">
     <g id="line2d_13">
      <path clip-path="url(#pce0b864b2d)" d="M 66.29225 119.924075 
L 690 119.924075 
" style="fill:none;stroke:#b0b0b0;stroke-linecap:square;stroke-width:0.8;"/>
     </g>
     <g id="line2d_14">
      <g>
       <use style="stroke:#000000;stroke-width:0.8;" x="66.29225" xlink:href="#me0f00ab0c8" y="119.924075"/>
      </g>
     </g>
     <g id="text_8">
      <!-- 1500 -->
      <g transform="translate(33.84225 123.723294)scale(0.1 -0.1)">
       <defs>
        <path d="M 10.796875 72.90625 
L 49.515625 72.90625 
L 49.515625 64.59375 
L 19.828125 64.59375 
L 19.828125 46.734375 
Q 21.96875 47.46875 24.109375 47.828125 
Q 26.265625 48.1875 28.421875 48.1875 
Q 40.625 48.1875 47.75 41.5 
Q 54.890625 34.8125 54.890625 23.390625 
Q 54.890625 11.625 47.5625 5.09375 
Q 40.234375 -1.421875 26.90625 -1.421875 
Q 22.3125 -1.421875 17.546875 -0.640625 
Q 12.796875 0.140625 7.71875 1.703125 
L 7.71875 11.625 
Q 12.109375 9.234375 16.796875 8.0625 
Q 21.484375 6.890625 26.703125 6.890625 
Q 35.15625 6.890625 40.078125 11.328125 
Q 45.015625 15.765625 45.015625 23.390625 
Q 45.015625 31 40.078125 35.4375 
Q 35.15625 39.890625 26.703125 39.890625 
Q 22.75 39.890625 18.8125 39.015625 
Q 14.890625 38.140625 10.796875 36.28125 
z
" id="DejaVuSans-53"/>
       </defs>
       <use xlink:href="#DejaVuSans-49"/>
       <use x="63.623047" xlink:href="#DejaVuSans-53"/>
       <use x="127.246094" xlink:href="#DejaVuSans-48"/>
       <use x="190.869141" xlink:href="#DejaVuSans-48"/>
      </g>
     </g>
    </g>
    <g id="ytick_8">
     <g id="line2d_15">
      <path clip-path="url(#pce0b864b2d)" d="M 66.29225 67.723833 
L 690 67.723833 
" style="fill:none;stroke:#b0b0b0;stroke-linecap:square;stroke-width:0.8;"/>
     </g>
     <g id="line2d_16">
      <g>
       <use style="stroke:#000000;stroke-width:0.8;" x="66.29225" xlink:href="#me0f00ab0c8" y="67.723833"/>
      </g>
     </g>
     <g id="text_9">
      <!-- 1600 -->
      <g transform="translate(33.84225 71.523052)scale(0.1 -0.1)">
       <defs>
        <path d="M 33.015625 40.375 
Q 26.375 40.375 22.484375 35.828125 
Q 18.609375 31.296875 18.609375 23.390625 
Q 18.609375 15.53125 22.484375 10.953125 
Q 26.375 6.390625 33.015625 6.390625 
Q 39.65625 6.390625 43.53125 10.953125 
Q 47.40625 15.53125 47.40625 23.390625 
Q 47.40625 31.296875 43.53125 35.828125 
Q 39.65625 40.375 33.015625 40.375 
z
M 52.59375 71.296875 
L 52.59375 62.3125 
Q 48.875 64.0625 45.09375 64.984375 
Q 41.3125 65.921875 37.59375 65.921875 
Q 27.828125 65.921875 22.671875 59.328125 
Q 17.53125 52.734375 16.796875 39.40625 
Q 19.671875 43.65625 24.015625 45.921875 
Q 28.375 48.1875 33.59375 48.1875 
Q 44.578125 48.1875 50.953125 41.515625 
Q 57.328125 34.859375 57.328125 23.390625 
Q 57.328125 12.15625 50.6875 5.359375 
Q 44.046875 -1.421875 33.015625 -1.421875 
Q 20.359375 -1.421875 13.671875 8.265625 
Q 6.984375 17.96875 6.984375 36.375 
Q 6.984375 53.65625 15.1875 63.9375 
Q 23.390625 74.21875 37.203125 74.21875 
Q 40.921875 74.21875 44.703125 73.484375 
Q 48.484375 72.75 52.59375 71.296875 
z
" id="DejaVuSans-54"/>
       </defs>
       <use xlink:href="#DejaVuSans-49"/>
       <use x="63.623047" xlink:href="#DejaVuSans-54"/>
       <use x="127.246094" xlink:href="#DejaVuSans-48"/>
       <use x="190.869141" xlink:href="#DejaVuSans-48"/>
      </g>
     </g>
    </g>
    <g id="text_10">
     <!-- Age (Ma) -->
     <g transform="translate(27.762562 282.830369)rotate(-90)scale(0.1 -0.1)">
      <defs>
       <path d="M 31 75.875 
Q 24.46875 64.65625 21.28125 53.65625 
Q 18.109375 42.671875 18.109375 31.390625 
Q 18.109375 20.125 21.3125 9.0625 
Q 24.515625 -2 31 -13.1875 
L 23.1875 -13.1875 
Q 15.875 -1.703125 12.234375 9.375 
Q 8.59375 20.453125 8.59375 31.390625 
Q 8.59375 42.28125 12.203125 53.3125 
Q 15.828125 64.359375 23.1875 75.875 
z
" id="DejaVuSans-40"/>
       <path d="M 8.015625 75.875 
L 15.828125 75.875 
Q 23.140625 64.359375 26.78125 53.3125 
Q 30.421875 42.28125 30.421875 31.390625 
Q 30.421875 20.453125 26.78125 9.375 
Q 23.140625 -1.703125 15.828125 -13.1875 
L 8.015625 -13.1875 
Q 14.5 -2 17.703125 9.0625 
Q 20.90625 20.125 20.90625 31.390625 
Q 20.90625 42.671875 17.703125 53.65625 
Q 14.5 64.65625 8.015625 75.875 
z
" id="DejaVuSans-41"/>
      </defs>
      <use xlink:href="#DejaVuSans-65"/>
      <use x="68.408203" xlink:href="#DejaVuSans-103"/>
      <use x="131.884766" xlink:href="#DejaVuSans-101"/>
      <use x="193.408203" xlink:href="#DejaVuSans-32"/>
      <use x="225.195312" xlink:href="#DejaVuSans-40"/>
      <use x="264.208984" xlink:href="#DejaVuSans-77"/>
      <use x="350.488281" xlink:href="#DejaVuSans-97"/>
      <use x="411.767578" xlink:href="#DejaVuSans-41"/>
     </g>
    </g>
   </g>
   <g id="LineCollection_1">
    <path clip-path="url(#pce0b864b2d)" d="M 122.992955 293.594279 
L 129.797039 293.594279 
" style="fill:none;stroke:#ffc0cb;stroke-width:3;"/>
   </g>
   <g id="LineCollection_2">
    <path clip-path="url(#pce0b864b2d)" d="M 217.494129 272.609782 
L 224.298213 272.609782 
" style="fill:none;stroke:#ffc0cb;stroke-width:3;"/>
   </g>
   <g id="LineCollection_3">
    <path clip-path="url(#pce0b864b2d)" d="M 311.995303 260.290525 
L 318.799388 260.290525 
" style="fill:none;stroke:#ffc0cb;stroke-width:3;"/>
   </g>
   <g id="LineCollection_4">
    <path clip-path="url(#pce0b864b2d)" d="M 94.642602 283.605114 
L 94.642602 283.605114 
" style="fill:none;stroke:#191970;stroke-width:3;"/>
   </g>
   <g id="line2d_17">
    <path clip-path="url(#pce0b864b2d)" d="M 66.29225 283.605114 
L 690 283.605114 
" style="fill:none;stroke:#000000;stroke-dasharray:1.5,2.475;stroke-dashoffset:0;stroke-width:1.5;"/>
   </g>
   <g id="patch_3">
    <path d="M 66.29225 478.016 
L 66.29225 42.56505 
" style="fill:none;stroke:#000000;stroke-linecap:square;stroke-linejoin:miter;stroke-width:0.8;"/>
   </g>
   <g id="patch_4">
    <path d="M 690 478.016 
L 690 42.56505 
" style="fill:none;stroke:#000000;stroke-linecap:square;stroke-linejoin:miter;stroke-width:0.8;"/>
   </g>
   <g id="patch_5">
    <path d="M 66.29225 478.016 
L 690 478.016 
" style="fill:none;stroke:#000000;stroke-linecap:square;stroke-linejoin:miter;stroke-width:0.8;"/>
   </g>
   <g id="patch_6">
    <path d="M 66.29225 42.56505 
L 690 42.56505 
" style="fill:none;stroke:#000000;stroke-linecap:square;stroke-linejoin:miter;stroke-width:0.8;"/>
   </g>
   <g id="text_11">
    <!-- UK027 -->
    <g transform="translate(358.367687 36.56505)scale(0.12 -0.12)">
     <defs>
      <path d="M 8.6875 72.90625 
L 18.609375 72.90625 
L 18.609375 28.609375 
Q 18.609375 16.890625 22.84375 11.734375 
Q 27.09375 6.59375 36.625 6.59375 
Q 46.09375 6.59375 50.34375 11.734375 
Q 54.59375 16.890625 54.59375 28.609375 
L 54.59375 72.90625 
L 64.5 72.90625 
L 64.5 27.390625 
Q 64.5 13.140625 57.4375 5.859375 
Q 50.390625 -1.421875 36.625 -1.421875 
Q 22.796875 -1.421875 15.734375 5.859375 
Q 8.6875 13.140625 8.6875 27.390625 
z
" id="DejaVuSans-85"/>
      <path d="M 9.8125 72.90625 
L 19.671875 72.90625 
L 19.671875 42.09375 
L 52.390625 72.90625 
L 65.09375 72.90625 
L 28.90625 38.921875 
L 67.671875 0 
L 54.6875 0 
L 19.671875 35.109375 
L 19.671875 0 
L 9.8125 0 
z
" id="DejaVuSans-75"/>
      <path d="M 8.203125 72.90625 
L 55.078125 72.90625 
L 55.078125 68.703125 
L 28.609375 0 
L 18.3125 0 
L 43.21875 64.59375 
L 8.203125 64.59375 
z
" id="DejaVuSans-55"/>
     </defs>
     <use xlink:href="#DejaVuSans-85"/>
     <use x="73.193359" xlink:href="#DejaVuSans-75"/>
     <use x="138.769531" xlink:href="#DejaVuSans-48"/>
     <use x="202.392578" xlink:href="#DejaVuSans-50"/>
     <use x="266.015625" xlink:href="#DejaVuSans-55"/>
    </g>
   </g>
   <g id="legend_1">
    <g id="patch_7">
     <path d="M 533.11875 473.016 
L 683 473.016 
Q 685 473.016 685 471.016 
L 685 398.625375 
Q 685 396.625375 683 396.625375 
L 533.11875 396.625375 
Q 531.11875 396.625375 531.11875 398.625375 
L 531.11875 471.016 
Q 531.11875 473.016 533.11875 473.016 
z
" style="fill:#ffffff;opacity:0.8;stroke:#cccccc;stroke-linejoin:miter;"/>
    </g>
    <g id="line2d_18">
     <path d="M 535.11875 404.723812 
L 555.11875 404.723812 
" style="fill:none;stroke:#000000;stroke-dasharray:1.5,2.475;stroke-dashoffset:0;stroke-width:1.5;"/>
    </g>
    <g id="line2d_19"/>
    <g id="text_12">
     <!-- MDA: 1186.44+/- 44.68 -->
     <g transform="translate(563.11875 408.223812)scale(0.1 -0.1)">
      <defs>
       <path d="M 19.671875 64.796875 
L 19.671875 8.109375 
L 31.59375 8.109375 
Q 46.6875 8.109375 53.6875 14.9375 
Q 60.6875 21.78125 60.6875 36.53125 
Q 60.6875 51.171875 53.6875 57.984375 
Q 46.6875 64.796875 31.59375 64.796875 
z
M 9.8125 72.90625 
L 30.078125 72.90625 
Q 51.265625 72.90625 61.171875 64.09375 
Q 71.09375 55.28125 71.09375 36.53125 
Q 71.09375 17.671875 61.125 8.828125 
Q 51.171875 0 30.078125 0 
L 9.8125 0 
z
" id="DejaVuSans-68"/>
       <path d="M 11.71875 12.40625 
L 22.015625 12.40625 
L 22.015625 0 
L 11.71875 0 
z
M 11.71875 51.703125 
L 22.015625 51.703125 
L 22.015625 39.3125 
L 11.71875 39.3125 
z
" id="DejaVuSans-58"/>
       <path d="M 31.78125 34.625 
Q 24.75 34.625 20.71875 30.859375 
Q 16.703125 27.09375 16.703125 20.515625 
Q 16.703125 13.921875 20.71875 10.15625 
Q 24.75 6.390625 31.78125 6.390625 
Q 38.8125 6.390625 42.859375 10.171875 
Q 46.921875 13.96875 46.921875 20.515625 
Q 46.921875 27.09375 42.890625 30.859375 
Q 38.875 34.625 31.78125 34.625 
z
M 21.921875 38.8125 
Q 15.578125 40.375 12.03125 44.71875 
Q 8.5 49.078125 8.5 55.328125 
Q 8.5 64.0625 14.71875 69.140625 
Q 20.953125 74.21875 31.78125 74.21875 
Q 42.671875 74.21875 48.875 69.140625 
Q 55.078125 64.0625 55.078125 55.328125 
Q 55.078125 49.078125 51.53125 44.71875 
Q 48 40.375 41.703125 38.8125 
Q 48.828125 37.15625 52.796875 32.3125 
Q 56.78125 27.484375 56.78125 20.515625 
Q 56.78125 9.90625 50.3125 4.234375 
Q 43.84375 -1.421875 31.78125 -1.421875 
Q 19.734375 -1.421875 13.25 4.234375 
Q 6.78125 9.90625 6.78125 20.515625 
Q 6.78125 27.484375 10.78125 32.3125 
Q 14.796875 37.15625 21.921875 38.8125 
z
M 18.3125 54.390625 
Q 18.3125 48.734375 21.84375 45.5625 
Q 25.390625 42.390625 31.78125 42.390625 
Q 38.140625 42.390625 41.71875 45.5625 
Q 45.3125 48.734375 45.3125 54.390625 
Q 45.3125 60.0625 41.71875 63.234375 
Q 38.140625 66.40625 31.78125 66.40625 
Q 25.390625 66.40625 21.84375 63.234375 
Q 18.3125 60.0625 18.3125 54.390625 
z
" id="DejaVuSans-56"/>
       <path d="M 10.6875 12.40625 
L 21 12.40625 
L 21 0 
L 10.6875 0 
z
" id="DejaVuSans-46"/>
      </defs>
      <use xlink:href="#DejaVuSans-77"/>
      <use x="86.279297" xlink:href="#DejaVuSans-68"/>
      <use x="161.53125" xlink:href="#DejaVuSans-65"/>
      <use x="228.189453" xlink:href="#DejaVuSans-58"/>
      <use x="261.880859" xlink:href="#DejaVuSans-32"/>
      <use x="293.667969" xlink:href="#DejaVuSans-49"/>
      <use x="357.291016" xlink:href="#DejaVuSans-49"/>
      <use x="420.914062" xlink:href="#DejaVuSans-56"/>
      <use x="484.537109" xlink:href="#DejaVuSans-54"/>
      <use x="548.160156" xlink:href="#DejaVuSans-46"/>
      <use x="579.947266" xlink:href="#DejaVuSans-52"/>
      <use x="643.570312" xlink:href="#DejaVuSans-52"/>
      <use x="707.193359" xlink:href="#DejaVuSans-43"/>
      <use x="790.982422" xlink:href="#DejaVuSans-47"/>
      <use x="824.673828" xlink:href="#DejaVuSans-45"/>
      <use x="860.757812" xlink:href="#DejaVuSans-32"/>
      <use x="892.544922" xlink:href="#DejaVuSans-52"/>
      <use x="956.167969" xlink:href="#DejaVuSans-52"/>
      <use x="1019.791016" xlink:href="#DejaVuSans-46"/>
      <use x="1051.578125" xlink:href="#DejaVuSans-54"/>
      <use x="1115.201172" xlink:href="#DejaVuSans-56"/>
     </g>
    </g>
    <g id="line2d_20">
     <path d="M 535.11875 419.401937 
L 555.11875 419.401937 
" style="fill:none;stroke:#191970;stroke-width:3;"/>
    </g>
    <g id="text_13">
     <!-- Age (Ma) -->
     <g transform="translate(563.11875 422.901937)scale(0.1 -0.1)">
      <use xlink:href="#DejaVuSans-65"/>
      <use x="68.408203" xlink:href="#DejaVuSans-103"/>
      <use x="131.884766" xlink:href="#DejaVuSans-101"/>
      <use x="193.408203" xlink:href="#DejaVuSans-32"/>
      <use x="225.195312" xlink:href="#DejaVuSans-40"/>
      <use x="264.208984" xlink:href="#DejaVuSans-77"/>
      <use x="350.488281" xlink:href="#DejaVuSans-97"/>
      <use x="411.767578" xlink:href="#DejaVuSans-41"/>
     </g>
    </g>
    <g id="patch_8">
     <path d="M 535.11875 437.580062 
L 555.11875 437.580062 
L 555.11875 430.580062 
L 535.11875 430.580062 
z
" style="fill:#6495ed;"/>
    </g>
    <g id="text_14">
     <!-- 1$\sigma$ Error -->
     <g transform="translate(563.11875 437.580062)scale(0.1 -0.1)">
      <use transform="translate(0 0.09375)" xlink:href="#DejaVuSans-49"/>
      <use transform="translate(63.623047 0.09375)" xlink:href="#DejaVuSans-Oblique-963"/>
      <use transform="translate(127.001953 0.09375)" xlink:href="#DejaVuSans-32"/>
      <use transform="translate(158.789062 0.09375)" xlink:href="#DejaVuSans-69"/>
      <use transform="translate(221.972656 0.09375)" xlink:href="#DejaVuSans-114"/>
      <use transform="translate(263.085938 0.09375)" xlink:href="#DejaVuSans-114"/>
      <use transform="translate(304.199219 0.09375)" xlink:href="#DejaVuSans-111"/>
      <use transform="translate(365.380859 0.09375)" xlink:href="#DejaVuSans-114"/>
     </g>
    </g>
    <g id="patch_9">
     <path d="M 535.11875 452.258187 
L 555.11875 452.258187 
L 555.11875 445.258187 
L 535.11875 445.258187 
z
" style="fill:#b0c4de;"/>
    </g>
    <g id="text_15">
     <!-- 2$\sigma$ Error -->
     <g transform="translate(563.11875 452.258187)scale(0.1 -0.1)">
      <use transform="translate(0 0.78125)" xlink:href="#DejaVuSans-50"/>
      <use transform="translate(63.623047 0.78125)" xlink:href="#DejaVuSans-Oblique-963"/>
      <use transform="translate(127.001953 0.78125)" xlink:href="#DejaVuSans-32"/>
      <use transform="translate(158.789062 0.78125)" xlink:href="#DejaVuSans-69"/>
      <use transform="translate(221.972656 0.78125)" xlink:href="#DejaVuSans-114"/>
      <use transform="translate(263.085938 0.78125)" xlink:href="#DejaVuSans-114"/>
      <use transform="translate(304.199219 0.78125)" xlink:href="#DejaVuSans-111"/>
      <use transform="translate(365.380859 0.78125)" xlink:href="#DejaVuSans-114"/>
     </g>
    </g>
    <g id="patch_10">
     <path d="M 535.11875 466.936312 
L 555.11875 466.936312 
L 555.11875 459.936312 
L 535.11875 459.936312 
z
" style="fill:#dc143c;"/>
    </g>
    <g id="text_16">
     <!-- Cluster: 3.0 -->
     <g transform="translate(563.11875 466.936312)scale(0.1 -0.1)">
      <defs>
       <path d="M 64.40625 67.28125 
L 64.40625 56.890625 
Q 59.421875 61.53125 53.78125 63.8125 
Q 48.140625 66.109375 41.796875 66.109375 
Q 29.296875 66.109375 22.65625 58.46875 
Q 16.015625 50.828125 16.015625 36.375 
Q 16.015625 21.96875 22.65625 14.328125 
Q 29.296875 6.6875 41.796875 6.6875 
Q 48.140625 6.6875 53.78125 8.984375 
Q 59.421875 11.28125 64.40625 15.921875 
L 64.40625 5.609375 
Q 59.234375 2.09375 53.4375 0.328125 
Q 47.65625 -1.421875 41.21875 -1.421875 
Q 24.65625 -1.421875 15.125 8.703125 
Q 5.609375 18.84375 5.609375 36.375 
Q 5.609375 53.953125 15.125 64.078125 
Q 24.65625 74.21875 41.21875 74.21875 
Q 47.75 74.21875 53.53125 72.484375 
Q 59.328125 70.75 64.40625 67.28125 
z
" id="DejaVuSans-67"/>
      </defs>
      <use xlink:href="#DejaVuSans-67"/>
      <use x="69.824219" xlink:href="#DejaVuSans-108"/>
      <use x="97.607422" xlink:href="#DejaVuSans-117"/>
      <use x="160.986328" xlink:href="#DejaVuSans-115"/>
      <use x="213.085938" xlink:href="#DejaVuSans-116"/>
      <use x="252.294922" xlink:href="#DejaVuSans-101"/>
      <use x="313.818359" xlink:href="#DejaVuSans-114"/>
      <use x="353.181641" xlink:href="#DejaVuSans-58"/>
      <use x="386.873047" xlink:href="#DejaVuSans-32"/>
      <use x="418.660156" xlink:href="#DejaVuSans-51"/>
      <use x="482.283203" xlink:href="#DejaVuSans-46"/>
      <use x="514.070312" xlink:href="#DejaVuSans-48"/>
     </g>
    </g>
   </g>
  </g>
  <g id="axes_2">
   <g id="patch_11">
    <path d="M 66.29225 967.016 
L 690 967.016 
L 690 531.56505 
L 66.29225 531.56505 
z
" style="fill:#ffffff;"/>
   </g>
   <g id="BrokenBarHCollection_16">
    <path clip-path="url(#p6eb7aec46e)" d="M 117.262564 900.358397 
L 117.262564 866.674632 
L 133.850536 866.674632 
L 133.850536 900.358397 
L 117.262564 900.358397 
z
" style="fill:#f08080;"/>
   </g>
   <g id="BrokenBarHCollection_17">
    <path clip-path="url(#p6eb7aec46e)" d="M 117.262564 866.674632 
L 117.262564 832.990868 
L 133.850536 832.990868 
L 133.850536 866.674632 
L 117.262564 866.674632 
z
" style="fill:#dc143c;"/>
   </g>
   <g id="BrokenBarHCollection_18">
    <path clip-path="url(#p6eb7aec46e)" d="M 117.262564 832.990868 
L 117.262564 799.307103 
L 133.850536 799.307103 
L 133.850536 832.990868 
L 117.262564 832.990868 
z
" style="fill:#dc143c;"/>
   </g>
   <g id="BrokenBarHCollection_19">
    <path clip-path="url(#p6eb7aec46e)" d="M 117.262564 799.307103 
L 117.262564 765.623339 
L 133.850536 765.623339 
L 133.850536 799.307103 
L 117.262564 799.307103 
z
" style="fill:#f08080;"/>
   </g>
   <g id="BrokenBarHCollection_20">
    <path clip-path="url(#p6eb7aec46e)" d="M 192.662437 891.743062 
L 192.662437 857.601847 
L 209.250409 857.601847 
L 209.250409 891.743062 
L 192.662437 891.743062 
z
" style="fill:#f08080;"/>
   </g>
   <g id="BrokenBarHCollection_21">
    <path clip-path="url(#p6eb7aec46e)" d="M 192.662437 857.601847 
L 192.662437 823.460631 
L 209.250409 823.460631 
L 209.250409 857.601847 
L 192.662437 857.601847 
z
" style="fill:#dc143c;"/>
   </g>
   <g id="BrokenBarHCollection_22">
    <path clip-path="url(#p6eb7aec46e)" d="M 192.662437 823.460631 
L 192.662437 789.319415 
L 209.250409 789.319415 
L 209.250409 823.460631 
L 192.662437 823.460631 
z
" style="fill:#dc143c;"/>
   </g>
   <g id="BrokenBarHCollection_23">
    <path clip-path="url(#p6eb7aec46e)" d="M 192.662437 789.319415 
L 192.662437 755.178199 
L 209.250409 755.178199 
L 209.250409 789.319415 
L 192.662437 789.319415 
z
" style="fill:#f08080;"/>
   </g>
   <g id="BrokenBarHCollection_24">
    <path clip-path="url(#p6eb7aec46e)" d="M 268.06231 886.030129 
L 268.06231 852.377619 
L 284.650282 852.377619 
L 284.650282 886.030129 
L 268.06231 886.030129 
z
" style="fill:#f08080;"/>
   </g>
   <g id="BrokenBarHCollection_25">
    <path clip-path="url(#p6eb7aec46e)" d="M 268.06231 852.377619 
L 268.06231 818.725109 
L 284.650282 818.725109 
L 284.650282 852.377619 
L 268.06231 852.377619 
z
" style="fill:#dc143c;"/>
   </g>
   <g id="BrokenBarHCollection_26">
    <path clip-path="url(#p6eb7aec46e)" d="M 268.06231 818.725109 
L 268.06231 785.072599 
L 284.650282 785.072599 
L 284.650282 818.725109 
L 268.06231 818.725109 
z
" style="fill:#dc143c;"/>
   </g>
   <g id="BrokenBarHCollection_27">
    <path clip-path="url(#p6eb7aec46e)" d="M 268.06231 785.072599 
L 268.06231 751.420089 
L 284.650282 751.420089 
L 284.650282 785.072599 
L 268.06231 785.072599 
z
" style="fill:#f08080;"/>
   </g>
   <g id="BrokenBarHCollection_28">
    <path clip-path="url(#p6eb7aec46e)" d="M 343.462183 860.019685 
L 343.462183 825.017848 
L 360.050155 825.017848 
L 360.050155 860.019685 
L 343.462183 860.019685 
z
" style="fill:#f08080;"/>
   </g>
   <g id="BrokenBarHCollection_29">
    <path clip-path="url(#p6eb7aec46e)" d="M 343.462183 825.017848 
L 343.462183 790.01601 
L 360.050155 790.01601 
L 360.050155 825.017848 
L 343.462183 825.017848 
z
" style="fill:#dc143c;"/>
   </g>
   <g id="BrokenBarHCollection_30">
    <path clip-path="url(#p6eb7aec46e)" d="M 343.462183 790.01601 
L 343.462183 755.014172 
L 360.050155 755.014172 
L 360.050155 790.01601 
L 343.462183 790.01601 
z
" style="fill:#dc143c;"/>
   </g>
   <g id="BrokenBarHCollection_31">
    <path clip-path="url(#p6eb7aec46e)" d="M 343.462183 755.014172 
L 343.462183 720.012335 
L 360.050155 720.012335 
L 360.050155 755.014172 
L 343.462183 755.014172 
z
" style="fill:#f08080;"/>
   </g>
   <g id="BrokenBarHCollection_32">
    <path clip-path="url(#p6eb7aec46e)" d="M 418.862056 947.222775 
L 418.862056 848.25665 
L 435.450029 848.25665 
L 435.450029 947.222775 
L 418.862056 947.222775 
z
" style="fill:#f08080;"/>
   </g>
   <g id="BrokenBarHCollection_33">
    <path clip-path="url(#p6eb7aec46e)" d="M 418.862056 848.25665 
L 418.862056 749.290525 
L 435.450029 749.290525 
L 435.450029 848.25665 
L 418.862056 848.25665 
z
" style="fill:#dc143c;"/>
   </g>
   <g id="BrokenBarHCollection_34">
    <path clip-path="url(#p6eb7aec46e)" d="M 418.862056 749.290525 
L 418.862056 650.3244 
L 435.450029 650.3244 
L 435.450029 749.290525 
L 418.862056 749.290525 
z
" style="fill:#dc143c;"/>
   </g>
   <g id="BrokenBarHCollection_35">
    <path clip-path="url(#p6eb7aec46e)" d="M 418.862056 650.3244 
L 418.862056 551.358275 
L 435.450029 551.358275 
L 435.450029 650.3244 
L 418.862056 650.3244 
z
" style="fill:#f08080;"/>
   </g>
   <g id="BrokenBarHCollection_36">
    <path clip-path="url(#p6eb7aec46e)" d="M 494.26193 947.222775 
L 494.26193 848.25665 
L 510.849902 848.25665 
L 510.849902 947.222775 
L 494.26193 947.222775 
z
" style="fill:#f08080;"/>
   </g>
   <g id="BrokenBarHCollection_37">
    <path clip-path="url(#p6eb7aec46e)" d="M 494.26193 848.25665 
L 494.26193 749.290525 
L 510.849902 749.290525 
L 510.849902 848.25665 
L 494.26193 848.25665 
z
" style="fill:#dc143c;"/>
   </g>
   <g id="BrokenBarHCollection_38">
    <path clip-path="url(#p6eb7aec46e)" d="M 494.26193 749.290525 
L 494.26193 650.3244 
L 510.849902 650.3244 
L 510.849902 749.290525 
L 494.26193 749.290525 
z
" style="fill:#dc143c;"/>
   </g>
   <g id="BrokenBarHCollection_39">
    <path clip-path="url(#p6eb7aec46e)" d="M 494.26193 650.3244 
L 494.26193 551.358275 
L 510.849902 551.358275 
L 510.849902 650.3244 
L 494.26193 650.3244 
z
" style="fill:#f08080;"/>
   </g>
   <g id="BrokenBarHCollection_40">
    <path clip-path="url(#p6eb7aec46e)" d="M 569.661803 883.601517 
L 569.661803 813.101559 
L 586.249775 813.101559 
L 586.249775 883.601517 
L 569.661803 883.601517 
z
" style="fill:#f08080;"/>
   </g>
   <g id="BrokenBarHCollection_41">
    <path clip-path="url(#p6eb7aec46e)" d="M 569.661803 813.101559 
L 569.661803 742.601601 
L 586.249775 742.601601 
L 586.249775 813.101559 
L 569.661803 813.101559 
z
" style="fill:#dc143c;"/>
   </g>
   <g id="BrokenBarHCollection_42">
    <path clip-path="url(#p6eb7aec46e)" d="M 569.661803 742.601601 
L 569.661803 672.101643 
L 586.249775 672.101643 
L 586.249775 742.601601 
L 569.661803 742.601601 
z
" style="fill:#dc143c;"/>
   </g>
   <g id="BrokenBarHCollection_43">
    <path clip-path="url(#p6eb7aec46e)" d="M 569.661803 672.101643 
L 569.661803 601.601685 
L 586.249775 601.601685 
L 586.249775 672.101643 
L 569.661803 672.101643 
z
" style="fill:#f08080;"/>
   </g>
   <g id="BrokenBarHCollection_44">
    <path clip-path="url(#p6eb7aec46e)" d="M 645.061676 883.601517 
L 645.061676 813.101559 
L 661.649648 813.101559 
L 661.649648 883.601517 
L 645.061676 883.601517 
z
" style="fill:#f08080;"/>
   </g>
   <g id="BrokenBarHCollection_45">
    <path clip-path="url(#p6eb7aec46e)" d="M 645.061676 813.101559 
L 645.061676 742.601601 
L 661.649648 742.601601 
L 661.649648 813.101559 
L 645.061676 813.101559 
z
" style="fill:#dc143c;"/>
   </g>
   <g id="BrokenBarHCollection_46">
    <path clip-path="url(#p6eb7aec46e)" d="M 645.061676 742.601601 
L 645.061676 672.101643 
L 661.649648 672.101643 
L 661.649648 742.601601 
L 645.061676 742.601601 
z
" style="fill:#dc143c;"/>
   </g>
   <g id="BrokenBarHCollection_47">
    <path clip-path="url(#p6eb7aec46e)" d="M 645.061676 672.101643 
L 645.061676 601.601685 
L 661.649648 601.601685 
L 661.649648 672.101643 
L 645.061676 672.101643 
z
" style="fill:#f08080;"/>
   </g>
   <g id="BrokenBarHCollection_48">
    <path clip-path="url(#p6eb7aec46e)" d="M 117.262564 805.967106 
L 117.262564 805.967106 
L 117.262564 805.967106 
L 117.262564 805.967106 
L 117.262564 805.967106 
z
" style="fill:#6495ed;"/>
   </g>
   <g id="BrokenBarHCollection_49">
    <path clip-path="url(#p6eb7aec46e)" d="M 117.262564 805.967106 
L 117.262564 805.967106 
L 117.262564 805.967106 
L 117.262564 805.967106 
L 117.262564 805.967106 
z
" style="fill:#b0c4de;"/>
   </g>
   <g id="BrokenBarHCollection_50">
    <path clip-path="url(#p6eb7aec46e)" d="M 117.262564 805.967106 
L 117.262564 805.967106 
L 117.262564 805.967106 
L 117.262564 805.967106 
L 117.262564 805.967106 
z
" style="fill:#dc143c;"/>
   </g>
   <g id="matplotlib.axis_3">
    <g id="text_17">
     <!-- Individual Age Measurements +/- 1$\sigma$/2$\sigma$ Error -->
     <g transform="translate(264.846125 978.616)scale(0.1 -0.1)">
      <use transform="translate(0 0.015625)" xlink:href="#DejaVuSans-73"/>
      <use transform="translate(29.492188 0.015625)" xlink:href="#DejaVuSans-110"/>
      <use transform="translate(92.871094 0.015625)" xlink:href="#DejaVuSans-100"/>
      <use transform="translate(156.347656 0.015625)" xlink:href="#DejaVuSans-105"/>
      <use transform="translate(184.130859 0.015625)" xlink:href="#DejaVuSans-118"/>
      <use transform="translate(243.310547 0.015625)" xlink:href="#DejaVuSans-105"/>
      <use transform="translate(271.09375 0.015625)" xlink:href="#DejaVuSans-100"/>
      <use transform="translate(334.570312 0.015625)" xlink:href="#DejaVuSans-117"/>
      <use transform="translate(397.949219 0.015625)" xlink:href="#DejaVuSans-97"/>
      <use transform="translate(459.228516 0.015625)" xlink:href="#DejaVuSans-108"/>
      <use transform="translate(487.011719 0.015625)" xlink:href="#DejaVuSans-32"/>
      <use transform="translate(518.798828 0.015625)" xlink:href="#DejaVuSans-65"/>
      <use transform="translate(587.207031 0.015625)" xlink:href="#DejaVuSans-103"/>
      <use transform="translate(650.683594 0.015625)" xlink:href="#DejaVuSans-101"/>
      <use transform="translate(712.207031 0.015625)" xlink:href="#DejaVuSans-32"/>
      <use transform="translate(743.994141 0.015625)" xlink:href="#DejaVuSans-77"/>
      <use transform="translate(830.273438 0.015625)" xlink:href="#DejaVuSans-101"/>
      <use transform="translate(891.796875 0.015625)" xlink:href="#DejaVuSans-97"/>
      <use transform="translate(953.076172 0.015625)" xlink:href="#DejaVuSans-115"/>
      <use transform="translate(1005.175781 0.015625)" xlink:href="#DejaVuSans-117"/>
      <use transform="translate(1068.554688 0.015625)" xlink:href="#DejaVuSans-114"/>
      <use transform="translate(1109.667969 0.015625)" xlink:href="#DejaVuSans-101"/>
      <use transform="translate(1171.191406 0.015625)" xlink:href="#DejaVuSans-109"/>
      <use transform="translate(1268.603516 0.015625)" xlink:href="#DejaVuSans-101"/>
      <use transform="translate(1330.126953 0.015625)" xlink:href="#DejaVuSans-110"/>
      <use transform="translate(1393.505859 0.015625)" xlink:href="#DejaVuSans-116"/>
      <use transform="translate(1432.714844 0.015625)" xlink:href="#DejaVuSans-115"/>
      <use transform="translate(1484.814453 0.015625)" xlink:href="#DejaVuSans-32"/>
      <use transform="translate(1516.601562 0.015625)" xlink:href="#DejaVuSans-43"/>
      <use transform="translate(1600.390625 0.015625)" xlink:href="#DejaVuSans-47"/>
      <use transform="translate(1634.082031 0.015625)" xlink:href="#DejaVuSans-45"/>
      <use transform="translate(1670.166016 0.015625)" xlink:href="#DejaVuSans-32"/>
      <use transform="translate(1701.953125 0.015625)" xlink:href="#DejaVuSans-49"/>
      <use transform="translate(1765.576172 0.015625)" xlink:href="#DejaVuSans-Oblique-963"/>
      <use transform="translate(1828.955078 0.015625)" xlink:href="#DejaVuSans-47"/>
      <use transform="translate(1859.021484 0.015625)" xlink:href="#DejaVuSans-50"/>
      <use transform="translate(1922.644531 0.015625)" xlink:href="#DejaVuSans-Oblique-963"/>
      <use transform="translate(1986.023438 0.015625)" xlink:href="#DejaVuSans-32"/>
      <use transform="translate(2017.810547 0.015625)" xlink:href="#DejaVuSans-69"/>
      <use transform="translate(2080.994141 0.015625)" xlink:href="#DejaVuSans-114"/>
      <use transform="translate(2122.107422 0.015625)" xlink:href="#DejaVuSans-114"/>
      <use transform="translate(2163.220703 0.015625)" xlink:href="#DejaVuSans-111"/>
      <use transform="translate(2224.402344 0.015625)" xlink:href="#DejaVuSans-114"/>
     </g>
    </g>
   </g>
   <g id="matplotlib.axis_4">
    <g id="ytick_9">
     <g id="line2d_21">
      <path clip-path="url(#p6eb7aec46e)" d="M 66.29225 942.795773 
L 690 942.795773 
" style="fill:none;stroke:#b0b0b0;stroke-linecap:square;stroke-width:0.8;"/>
     </g>
     <g id="line2d_22">
      <g>
       <use style="stroke:#000000;stroke-width:0.8;" x="66.29225" xlink:href="#me0f00ab0c8" y="942.795773"/>
      </g>
     </g>
     <g id="text_18">
      <!-- 1000 -->
      <g transform="translate(33.84225 946.594991)scale(0.1 -0.1)">
       <use xlink:href="#DejaVuSans-49"/>
       <use x="63.623047" xlink:href="#DejaVuSans-48"/>
       <use x="127.246094" xlink:href="#DejaVuSans-48"/>
       <use x="190.869141" xlink:href="#DejaVuSans-48"/>
      </g>
     </g>
    </g>
    <g id="ytick_10">
     <g id="line2d_23">
      <path clip-path="url(#p6eb7aec46e)" d="M 66.29225 883.601754 
L 690 883.601754 
" style="fill:none;stroke:#b0b0b0;stroke-linecap:square;stroke-width:0.8;"/>
     </g>
     <g id="line2d_24">
      <g>
       <use style="stroke:#000000;stroke-width:0.8;" x="66.29225" xlink:href="#me0f00ab0c8" y="883.601754"/>
      </g>
     </g>
     <g id="text_19">
      <!-- 1100 -->
      <g transform="translate(33.84225 887.400973)scale(0.1 -0.1)">
       <use xlink:href="#DejaVuSans-49"/>
       <use x="63.623047" xlink:href="#DejaVuSans-49"/>
       <use x="127.246094" xlink:href="#DejaVuSans-48"/>
       <use x="190.869141" xlink:href="#DejaVuSans-48"/>
      </g>
     </g>
    </g>
    <g id="ytick_11">
     <g id="line2d_25">
      <path clip-path="url(#p6eb7aec46e)" d="M 66.29225 824.407735 
L 690 824.407735 
" style="fill:none;stroke:#b0b0b0;stroke-linecap:square;stroke-width:0.8;"/>
     </g>
     <g id="line2d_26">
      <g>
       <use style="stroke:#000000;stroke-width:0.8;" x="66.29225" xlink:href="#me0f00ab0c8" y="824.407735"/>
      </g>
     </g>
     <g id="text_20">
      <!-- 1200 -->
      <g transform="translate(33.84225 828.206954)scale(0.1 -0.1)">
       <use xlink:href="#DejaVuSans-49"/>
       <use x="63.623047" xlink:href="#DejaVuSans-50"/>
       <use x="127.246094" xlink:href="#DejaVuSans-48"/>
       <use x="190.869141" xlink:href="#DejaVuSans-48"/>
      </g>
     </g>
    </g>
    <g id="ytick_12">
     <g id="line2d_27">
      <path clip-path="url(#p6eb7aec46e)" d="M 66.29225 765.213716 
L 690 765.213716 
" style="fill:none;stroke:#b0b0b0;stroke-linecap:square;stroke-width:0.8;"/>
     </g>
     <g id="line2d_28">
      <g>
       <use style="stroke:#000000;stroke-width:0.8;" x="66.29225" xlink:href="#me0f00ab0c8" y="765.213716"/>
      </g>
     </g>
     <g id="text_21">
      <!-- 1300 -->
      <g transform="translate(33.84225 769.012935)scale(0.1 -0.1)">
       <use xlink:href="#DejaVuSans-49"/>
       <use x="63.623047" xlink:href="#DejaVuSans-51"/>
       <use x="127.246094" xlink:href="#DejaVuSans-48"/>
       <use x="190.869141" xlink:href="#DejaVuSans-48"/>
      </g>
     </g>
    </g>
    <g id="ytick_13">
     <g id="line2d_29">
      <path clip-path="url(#p6eb7aec46e)" d="M 66.29225 706.019697 
L 690 706.019697 
" style="fill:none;stroke:#b0b0b0;stroke-linecap:square;stroke-width:0.8;"/>
     </g>
     <g id="line2d_30">
      <g>
       <use style="stroke:#000000;stroke-width:0.8;" x="66.29225" xlink:href="#me0f00ab0c8" y="706.019697"/>
      </g>
     </g>
     <g id="text_22">
      <!-- 1400 -->
      <g transform="translate(33.84225 709.818916)scale(0.1 -0.1)">
       <use xlink:href="#DejaVuSans-49"/>
       <use x="63.623047" xlink:href="#DejaVuSans-52"/>
       <use x="127.246094" xlink:href="#DejaVuSans-48"/>
       <use x="190.869141" xlink:href="#DejaVuSans-48"/>
      </g>
     </g>
    </g>
    <g id="ytick_14">
     <g id="line2d_31">
      <path clip-path="url(#p6eb7aec46e)" d="M 66.29225 646.825678 
L 690 646.825678 
" style="fill:none;stroke:#b0b0b0;stroke-linecap:square;stroke-width:0.8;"/>
     </g>
     <g id="line2d_32">
      <g>
       <use style="stroke:#000000;stroke-width:0.8;" x="66.29225" xlink:href="#me0f00ab0c8" y="646.825678"/>
      </g>
     </g>
     <g id="text_23">
      <!-- 1500 -->
      <g transform="translate(33.84225 650.624897)scale(0.1 -0.1)">
       <use xlink:href="#DejaVuSans-49"/>
       <use x="63.623047" xlink:href="#DejaVuSans-53"/>
       <use x="127.246094" xlink:href="#DejaVuSans-48"/>
       <use x="190.869141" xlink:href="#DejaVuSans-48"/>
      </g>
     </g>
    </g>
    <g id="ytick_15">
     <g id="line2d_33">
      <path clip-path="url(#p6eb7aec46e)" d="M 66.29225 587.631659 
L 690 587.631659 
" style="fill:none;stroke:#b0b0b0;stroke-linecap:square;stroke-width:0.8;"/>
     </g>
     <g id="line2d_34">
      <g>
       <use style="stroke:#000000;stroke-width:0.8;" x="66.29225" xlink:href="#me0f00ab0c8" y="587.631659"/>
      </g>
     </g>
     <g id="text_24">
      <!-- 1600 -->
      <g transform="translate(33.84225 591.430878)scale(0.1 -0.1)">
       <use xlink:href="#DejaVuSans-49"/>
       <use x="63.623047" xlink:href="#DejaVuSans-54"/>
       <use x="127.246094" xlink:href="#DejaVuSans-48"/>
       <use x="190.869141" xlink:href="#DejaVuSans-48"/>
      </g>
     </g>
    </g>
    <g id="text_25">
     <!-- Age (Ma) -->
     <g transform="translate(27.762562 771.830369)rotate(-90)scale(0.1 -0.1)">
      <use xlink:href="#DejaVuSans-65"/>
      <use x="68.408203" xlink:href="#DejaVuSans-103"/>
      <use x="131.884766" xlink:href="#DejaVuSans-101"/>
      <use x="193.408203" xlink:href="#DejaVuSans-32"/>
      <use x="225.195312" xlink:href="#DejaVuSans-40"/>
      <use x="264.208984" xlink:href="#DejaVuSans-77"/>
      <use x="350.488281" xlink:href="#DejaVuSans-97"/>
      <use x="411.767578" xlink:href="#DejaVuSans-41"/>
     </g>
    </g>
   </g>
   <g id="LineCollection_5">
    <path clip-path="url(#p6eb7aec46e)" d="M 117.262564 832.990868 
L 130.985341 832.990868 
" style="fill:none;stroke:#ffc0cb;stroke-width:3;"/>
   </g>
   <g id="LineCollection_6">
    <path clip-path="url(#p6eb7aec46e)" d="M 192.662437 823.460631 
L 206.385214 823.460631 
" style="fill:none;stroke:#ffc0cb;stroke-width:3;"/>
   </g>
   <g id="LineCollection_7">
    <path clip-path="url(#p6eb7aec46e)" d="M 268.06231 818.725109 
L 281.785087 818.725109 
" style="fill:none;stroke:#ffc0cb;stroke-width:3;"/>
   </g>
   <g id="LineCollection_8">
    <path clip-path="url(#p6eb7aec46e)" d="M 343.462183 790.01601 
L 357.18496 790.01601 
" style="fill:none;stroke:#ffc0cb;stroke-width:3;"/>
   </g>
   <g id="LineCollection_9">
    <path clip-path="url(#p6eb7aec46e)" d="M 418.862056 749.290525 
L 432.584833 749.290525 
" style="fill:none;stroke:#ffc0cb;stroke-width:3;"/>
   </g>
   <g id="LineCollection_10">
    <path clip-path="url(#p6eb7aec46e)" d="M 494.26193 749.290525 
L 507.984706 749.290525 
" style="fill:none;stroke:#ffc0cb;stroke-width:3;"/>
   </g>
   <g id="LineCollection_11">
    <path clip-path="url(#p6eb7aec46e)" d="M 569.661803 742.601601 
L 583.384579 742.601601 
" style="fill:none;stroke:#ffc0cb;stroke-width:3;"/>
   </g>
   <g id="LineCollection_12">
    <path clip-path="url(#p6eb7aec46e)" d="M 645.061676 742.601601 
L 658.784453 742.601601 
" style="fill:none;stroke:#ffc0cb;stroke-width:3;"/>
   </g>
   <g id="LineCollection_13">
    <path clip-path="url(#p6eb7aec46e)" d="M 94.642602 805.967106 
L 94.642602 805.967106 
" style="fill:none;stroke:#191970;stroke-width:3;"/>
   </g>
   <g id="line2d_35">
    <path clip-path="url(#p6eb7aec46e)" d="M 66.29225 805.967106 
L 690 805.967106 
" style="fill:none;stroke:#000000;stroke-dasharray:1.5,2.475;stroke-dashoffset:0;stroke-width:1.5;"/>
   </g>
   <g id="patch_12">
    <path d="M 66.29225 967.016 
L 66.29225 531.56505 
" style="fill:none;stroke:#000000;stroke-linecap:square;stroke-linejoin:miter;stroke-width:0.8;"/>
   </g>
   <g id="patch_13">
    <path d="M 690 967.016 
L 690 531.56505 
" style="fill:none;stroke:#000000;stroke-linecap:square;stroke-linejoin:miter;stroke-width:0.8;"/>
   </g>
   <g id="patch_14">
    <path d="M 66.29225 967.016 
L 690 967.016 
" style="fill:none;stroke:#000000;stroke-linecap:square;stroke-linejoin:miter;stroke-width:0.8;"/>
   </g>
   <g id="patch_15">
    <path d="M 66.29225 531.56505 
L 690 531.56505 
" style="fill:none;stroke:#000000;stroke-linecap:square;stroke-linejoin:miter;stroke-width:0.8;"/>
   </g>
   <g id="text_26">
    <!-- UK025 -->
    <g transform="translate(358.367687 525.56505)scale(0.12 -0.12)">
     <use xlink:href="#DejaVuSans-85"/>
     <use x="73.193359" xlink:href="#DejaVuSans-75"/>
     <use x="138.769531" xlink:href="#DejaVuSans-48"/>
     <use x="202.392578" xlink:href="#DejaVuSans-50"/>
     <use x="266.015625" xlink:href="#DejaVuSans-53"/>
    </g>
   </g>
   <g id="legend_2">
    <g id="patch_16">
     <path d="M 533.11875 962.016 
L 683 962.016 
Q 685 962.016 685 960.016 
L 685 887.625375 
Q 685 885.625375 683 885.625375 
L 533.11875 885.625375 
Q 531.11875 885.625375 531.11875 887.625375 
L 531.11875 960.016 
Q 531.11875 962.016 533.11875 962.016 
z
" style="fill:#ffffff;opacity:0.8;stroke:#cccccc;stroke-linejoin:miter;"/>
    </g>
    <g id="line2d_36">
     <path d="M 535.11875 893.723813 
L 555.11875 893.723813 
" style="fill:none;stroke:#000000;stroke-dasharray:1.5,2.475;stroke-dashoffset:0;stroke-width:1.5;"/>
    </g>
    <g id="line2d_37"/>
    <g id="text_27">
     <!-- MDA: 1231.15+/- 30.89 -->
     <g transform="translate(563.11875 897.223813)scale(0.1 -0.1)">
      <use xlink:href="#DejaVuSans-77"/>
      <use x="86.279297" xlink:href="#DejaVuSans-68"/>
      <use x="161.53125" xlink:href="#DejaVuSans-65"/>
      <use x="228.189453" xlink:href="#DejaVuSans-58"/>
      <use x="261.880859" xlink:href="#DejaVuSans-32"/>
      <use x="293.667969" xlink:href="#DejaVuSans-49"/>
      <use x="357.291016" xlink:href="#DejaVuSans-50"/>
      <use x="420.914062" xlink:href="#DejaVuSans-51"/>
      <use x="484.537109" xlink:href="#DejaVuSans-49"/>
      <use x="548.160156" xlink:href="#DejaVuSans-46"/>
      <use x="579.947266" xlink:href="#DejaVuSans-49"/>
      <use x="643.570312" xlink:href="#DejaVuSans-53"/>
      <use x="707.193359" xlink:href="#DejaVuSans-43"/>
      <use x="790.982422" xlink:href="#DejaVuSans-47"/>
      <use x="824.673828" xlink:href="#DejaVuSans-45"/>
      <use x="860.757812" xlink:href="#DejaVuSans-32"/>
      <use x="892.544922" xlink:href="#DejaVuSans-51"/>
      <use x="956.167969" xlink:href="#DejaVuSans-48"/>
      <use x="1019.791016" xlink:href="#DejaVuSans-46"/>
      <use x="1051.578125" xlink:href="#DejaVuSans-56"/>
      <use x="1115.201172" xlink:href="#DejaVuSans-57"/>
     </g>
    </g>
    <g id="line2d_38">
     <path d="M 535.11875 908.401938 
L 555.11875 908.401938 
" style="fill:none;stroke:#191970;stroke-width:3;"/>
    </g>
    <g id="text_28">
     <!-- Age (Ma) -->
     <g transform="translate(563.11875 911.901938)scale(0.1 -0.1)">
      <use xlink:href="#DejaVuSans-65"/>
      <use x="68.408203" xlink:href="#DejaVuSans-103"/>
      <use x="131.884766" xlink:href="#DejaVuSans-101"/>
      <use x="193.408203" xlink:href="#DejaVuSans-32"/>
      <use x="225.195312" xlink:href="#DejaVuSans-40"/>
      <use x="264.208984" xlink:href="#DejaVuSans-77"/>
      <use x="350.488281" xlink:href="#DejaVuSans-97"/>
      <use x="411.767578" xlink:href="#DejaVuSans-41"/>
     </g>
    </g>
    <g id="patch_17">
     <path d="M 535.11875 926.580063 
L 555.11875 926.580063 
L 555.11875 919.580063 
L 535.11875 919.580063 
z
" style="fill:#6495ed;"/>
    </g>
    <g id="text_29">
     <!-- 1$\sigma$ Error -->
     <g transform="translate(563.11875 926.580063)scale(0.1 -0.1)">
      <use transform="translate(0 0.09375)" xlink:href="#DejaVuSans-49"/>
      <use transform="translate(63.623047 0.09375)" xlink:href="#DejaVuSans-Oblique-963"/>
      <use transform="translate(127.001953 0.09375)" xlink:href="#DejaVuSans-32"/>
      <use transform="translate(158.789062 0.09375)" xlink:href="#DejaVuSans-69"/>
      <use transform="translate(221.972656 0.09375)" xlink:href="#DejaVuSans-114"/>
      <use transform="translate(263.085938 0.09375)" xlink:href="#DejaVuSans-114"/>
      <use transform="translate(304.199219 0.09375)" xlink:href="#DejaVuSans-111"/>
      <use transform="translate(365.380859 0.09375)" xlink:href="#DejaVuSans-114"/>
     </g>
    </g>
    <g id="patch_18">
     <path d="M 535.11875 941.258188 
L 555.11875 941.258188 
L 555.11875 934.258188 
L 535.11875 934.258188 
z
" style="fill:#b0c4de;"/>
    </g>
    <g id="text_30">
     <!-- 2$\sigma$ Error -->
     <g transform="translate(563.11875 941.258188)scale(0.1 -0.1)">
      <use transform="translate(0 0.78125)" xlink:href="#DejaVuSans-50"/>
      <use transform="translate(63.623047 0.78125)" xlink:href="#DejaVuSans-Oblique-963"/>
      <use transform="translate(127.001953 0.78125)" xlink:href="#DejaVuSans-32"/>
      <use transform="translate(158.789062 0.78125)" xlink:href="#DejaVuSans-69"/>
      <use transform="translate(221.972656 0.78125)" xlink:href="#DejaVuSans-114"/>
      <use transform="translate(263.085938 0.78125)" xlink:href="#DejaVuSans-114"/>
      <use transform="translate(304.199219 0.78125)" xlink:href="#DejaVuSans-111"/>
      <use transform="translate(365.380859 0.78125)" xlink:href="#DejaVuSans-114"/>
     </g>
    </g>
    <g id="patch_19">
     <path d="M 535.11875 955.936312 
L 555.11875 955.936312 
L 555.11875 948.936312 
L 535.11875 948.936312 
z
" style="fill:#dc143c;"/>
    </g>
    <g id="text_31">
     <!-- Cluster: 8.0 -->
     <g transform="translate(563.11875 955.936312)scale(0.1 -0.1)">
      <use xlink:href="#DejaVuSans-67"/>
      <use x="69.824219" xlink:href="#DejaVuSans-108"/>
      <use x="97.607422" xlink:href="#DejaVuSans-117"/>
      <use x="160.986328" xlink:href="#DejaVuSans-115"/>
      <use x="213.085938" xlink:href="#DejaVuSans-116"/>
      <use x="252.294922" xlink:href="#DejaVuSans-101"/>
      <use x="313.818359" xlink:href="#DejaVuSans-114"/>
      <use x="353.181641" xlink:href="#DejaVuSans-58"/>
      <use x="386.873047" xlink:href="#DejaVuSans-32"/>
      <use x="418.660156" xlink:href="#DejaVuSans-56"/>
      <use x="482.283203" xlink:href="#DejaVuSans-46"/>
      <use x="514.070312" xlink:href="#DejaVuSans-48"/>
     </g>
    </g>
   </g>
  </g>
 </g>
 <defs>
  <clipPath id="pce0b864b2d">
   <rect height="435.45095" width="623.70775" x="66.29225" y="42.56505"/>
  </clipPath>
  <clipPath id="p6eb7aec46e">
   <rect height="435.45095" width="623.70775" x="66.29225" y="531.56505"/>
  </clipPath>
 </defs>
</svg>
